<svg width="28" height="28" viewBox="0 0 28 28" fill="none" xmlns="http://www.w3.org/2000/svg">
<path d="M13.9985 7.06557C12.159 7.06557 10.3948 7.79632 9.09401 9.09708C7.79326 10.3978 7.06251 12.162 7.06251 14.0016C7.06251 15.8411 7.79326 17.6053 9.09401 18.9061C10.3948 20.2068 12.159 20.9376 13.9985 20.9376C15.838 20.9376 17.6022 20.2068 18.903 18.9061C20.2038 17.6053 20.9345 15.8411 20.9345 14.0016C20.9345 12.162 20.2038 10.3978 18.903 9.09708C17.6022 7.79632 15.838 7.06557 13.9985 7.06557ZM13.9985 18.5061C12.8034 18.5061 11.6573 18.0313 10.8123 17.1863C9.96724 16.3413 9.49251 15.1951 9.49251 14.0001C9.49251 12.805 9.96724 11.6589 10.8123 10.8138C11.6573 9.96881 12.8034 9.49407 13.9985 9.49407C15.1936 9.49407 16.3397 9.96881 17.1847 10.8138C18.0298 11.6589 18.5045 12.805 18.5045 14.0001C18.5045 15.1951 18.0298 16.3413 17.1847 17.1863C16.3397 18.0313 15.1936 18.5061 13.9985 18.5061Z" fill="black"/>
<path d="M21.209 8.42757C22.1021 8.42757 22.826 7.70361 22.826 6.81057C22.826 5.91752 22.1021 5.19357 21.209 5.19357C20.316 5.19357 19.592 5.91752 19.592 6.81057C19.592 7.70361 20.316 8.42757 21.209 8.42757Z" fill="black"/>
<path d="M26.7995 5.16657C26.4523 4.26984 25.9216 3.45549 25.2415 2.77566C24.5614 2.09582 23.7469 1.56548 22.85 1.21857C21.8005 0.824604 20.6918 0.61158 19.571 0.588568C18.1265 0.525568 17.669 0.507568 14.006 0.507568C10.343 0.507568 9.87351 0.507568 8.44101 0.588568C7.32109 0.610403 6.21314 0.823471 5.16501 1.21857C4.26791 1.56507 3.45315 2.09527 2.77301 2.77516C2.09286 3.45505 1.56235 4.2696 1.21551 5.16657C0.821463 6.21599 0.608928 7.32482 0.587006 8.44557C0.522506 9.88857 0.503006 10.3461 0.503006 14.0106C0.503006 17.6736 0.503006 18.1401 0.587006 19.5756C0.609506 20.6976 0.821006 21.8046 1.21551 22.8561C1.56332 23.7527 2.09435 24.5669 2.77466 25.2467C3.45497 25.9265 4.2696 26.4569 5.16651 26.8041C6.21266 27.2139 7.32106 27.4421 8.44401 27.4791C9.88851 27.5421 10.346 27.5616 14.009 27.5616C17.672 27.5616 18.1415 27.5616 19.574 27.4791C20.6947 27.4563 21.8034 27.2438 22.853 26.8506C23.7496 26.5029 24.5639 25.972 25.244 25.292C25.924 24.612 26.4548 23.7977 26.8025 22.9011C27.197 21.8511 27.4085 20.7441 27.431 19.6221C27.4955 18.1791 27.515 17.7216 27.515 14.0571C27.515 10.3926 27.515 9.92757 27.431 8.49207C27.4135 7.35548 27.1999 6.23044 26.7995 5.16657ZM24.9725 19.4646C24.9628 20.329 24.805 21.1854 24.506 21.9966C24.2807 22.5799 23.9359 23.1096 23.4936 23.5516C23.0513 23.9936 22.5214 24.3381 21.938 24.5631C21.1358 24.8607 20.2885 25.0185 19.433 25.0296C18.008 25.0956 17.606 25.1121 13.952 25.1121C10.295 25.1121 9.92151 25.1121 8.46951 25.0296C7.6144 25.0191 6.76749 24.8613 5.96601 24.5631C5.38054 24.3395 4.84851 23.9956 4.40434 23.5535C3.96017 23.1114 3.61376 22.581 3.38751 21.9966C3.09268 21.1941 2.93497 20.3478 2.92101 19.4931C2.85651 18.0681 2.84151 17.6661 2.84151 14.0121C2.84151 10.3566 2.84151 9.98307 2.92101 8.52957C2.9307 7.6656 3.08849 6.8097 3.38751 5.99907C3.84501 4.81557 4.78251 3.88407 5.96601 3.43107C6.76789 3.13428 7.61454 2.97651 8.46951 2.96457C9.89601 2.90007 10.2965 2.88207 13.952 2.88207C17.6075 2.88207 17.9825 2.88207 19.433 2.96457C20.2886 2.97486 21.136 3.13268 21.938 3.43107C22.5214 3.65648 23.0512 4.00137 23.4935 4.44361C23.9357 4.88586 24.2806 5.41568 24.506 5.99907C24.8008 6.80149 24.9585 7.64781 24.9725 8.50257C25.037 9.92907 25.0535 10.3296 25.0535 13.9851C25.0535 17.6391 25.0535 18.0321 24.989 19.4661H24.9725V19.4646Z" fill="black"/>
</svg>
